<svg width="101" height="18" viewBox="0 0 101 18" fill="none" xmlns="http://www.w3.org/2000/svg">
<g clip-path="url(#clip0_135_3354)">
<path d="M1.28133 16.5385C0.386396 15.2762 -0.0578584 13.7627 0.0168559 12.2308V5.84615C-0.0915196 4.29774 0.324917 2.75746 1.2023 1.46154C2.07163 0.461538 3.41513 0 5.39088 0C7.36662 0 8.6311 0.461538 9.42139 1.30769C10.2794 2.37941 10.7015 3.72136 10.6068 5.07692V6.61539H6.73438V4.84615C6.76566 4.32289 6.68492 3.799 6.49729 3.30769C6.397 3.10938 6.23805 2.9448 6.04088 2.83513C5.8437 2.72547 5.61733 2.67572 5.39088 2.69231C4.83767 2.69231 4.44252 2.84615 4.28446 3.23077C4.10568 3.77733 4.02546 4.34988 4.04737 4.92308V13.1538C4.00564 13.71 4.11464 14.267 4.36349 14.7692C4.52155 15.1538 4.9167 15.3077 5.46991 15.3077C6.02312 15.3077 6.33923 15.1538 6.49729 14.7692C6.67698 14.2494 6.75733 13.7019 6.73438 13.1538V11.3077H10.6068V12.8462C10.6872 14.2238 10.2676 15.5852 9.42139 16.6923C8.6311 17.6154 7.28759 18.0769 5.39088 18.0769C3.49416 18 2.07163 17.5385 1.28133 16.5385Z" fill="#111111"/>
<path d="M15.2527 0.23077H19.7574L23.0767 17.7692H19.4413L18.8091 14.0769H16.2011L15.5689 17.7692H11.8545L15.2527 0.23077ZM18.493 11.7692L17.5446 4.92308L16.5963 11.7692H18.493Z" fill="#111111"/>
<path d="M25.8427 3.15385H23.1557V0.23077H32.5602V3.07692H29.8732V17.7692H25.8427V3.15385Z" fill="#111111"/>
<path d="M39.752 0.23077H46.7066V2.07692H42.2019V7.84615H45.8372V9.61539H42.2019V16.0769H46.7066V17.8462H39.6729V0.23077H39.752Z" fill="#111111"/>
<path d="M48.7613 0.23077H50.5L55.6369 11.8462V0.23077H57.6917V17.7692H56.1111L50.8951 5.76923V17.7692H48.7613V0.23077Z" fill="#111111"/>
<path d="M60.0626 0.23077H67.0172V2.07692H62.5125V7.84615H66.1479V9.61539H62.5125V16.0769H67.0172V17.8462H60.0626V0.23077Z" fill="#111111"/>
<path d="M69.072 0.23077H72.7074C74.1375 0.134618 75.5587 0.514353 76.7379 1.30769C77.6072 2 78.0024 3.23077 78.0024 4.84616C78.0024 7.07692 77.2911 8.46154 75.7895 8.92308L78.3185 17.6923H75.8686L73.4977 9.46154H71.5219V17.6923H68.993V0.23077H69.072ZM72.5493 7.76923C73.364 7.83458 74.1761 7.61652 74.8412 7.15385C75.3154 6.76923 75.5524 6 75.5524 4.84616C75.5743 4.27296 75.4941 3.7004 75.3154 3.15385C75.1375 2.76166 74.832 2.4373 74.446 2.23077C73.9017 1.98934 73.3042 1.8836 72.7074 1.92308H71.601V7.69231H72.5493V7.76923Z" fill="#111111"/>
<path d="M81.1804 16.4615C80.3588 15.1166 79.9732 13.5617 80.0739 12V6.15385C80.0545 5.03911 80.1873 3.9268 80.4691 2.84615C80.7335 2.03863 81.2605 1.33668 81.9707 0.846152C82.853 0.337748 83.871 0.0967294 84.8948 0.153844C86.5544 0.153844 87.7398 0.53846 88.4511 1.38461C89.2693 2.50191 89.6607 3.86237 89.5575 5.23077V5.84615H87.1866V5.30769C87.1902 4.66346 87.1373 4.0201 87.0286 3.38461C86.9619 2.98303 86.7346 2.62348 86.3963 2.38461C85.9521 2.10082 85.4249 1.96579 84.8948 2C84.3281 1.96466 83.7672 2.12843 83.3142 2.46154C83.1283 2.61401 82.9763 2.80181 82.8676 3.01344C82.7589 3.22507 82.6957 3.45608 82.6819 3.69231C82.5777 4.37999 82.5249 5.07411 82.5239 5.76923V12.3077C82.4656 13.3038 82.6273 14.3006 82.998 15.2308C83.3142 15.8462 83.9464 16.0769 84.8948 16.0769C85.2692 16.1223 85.6491 16.0589 85.9866 15.8947C86.3241 15.7304 86.6041 15.4727 86.7915 15.1538C87.209 14.1811 87.398 13.1299 87.3447 12.0769V10.8462H85.0528V9.07692H89.6365V17.7692H88.0559L87.8189 15.7692C87.6117 16.4395 87.1802 17.0231 86.5931 17.4273C86.006 17.8315 85.297 18.0331 84.5786 18C83.9256 18.0374 83.2733 17.9164 82.6802 17.6479C82.0871 17.3794 81.5717 16.9717 81.1804 16.4615V16.4615Z" fill="#111111"/>
<path d="M94.6945 11.6154L90.822 0.30769H93.1929L95.9589 8.76923L98.6459 0.30769H101.017L97.1444 11.6154V17.7692H94.7735V11.6154H94.6945Z" fill="#111111"/>
</g>
<defs>
<clipPath id="clip0_135_3354">
<rect width="101" height="18" fill="white"/>
</clipPath>
</defs>
</svg>
